<mxfile host="app.diagrams.net" modified="2023-09-23T11:45:41.323Z" agent="Mozilla/5.0 (Macintosh; Intel Mac OS X 10_15_7) AppleWebKit/605.1.15 (KHTML, like Gecko) Version/16.5.2 Safari/605.1.15" version="21.8.1" etag="RHBNDCIYi9VMQRT41yYf" type="github">
  <diagram name="Page-1" id="uPg6snv2tzJXgFNiM9jB">
    <mxGraphModel>
      <root>
        <mxCell id="0" />
        <mxCell id="1" parent="0" />
      </root>
    </mxGraphModel>
  </diagram>
</mxfile>
